# xmcd
#
# Track frame offsets:
#	150
#	19923
#	33615
#	45924
#	57916
#	81600
#	95378
#	111866
#	126331
#	144782
#	156553
#	170517
#	186992
#	203880
#	220023
#	239327
#	253136
#	270113
#	284364
#	310999
#	332306
#	349287
#
# Disc length: 4787 seconds
#
# Revision: 0
# Processed by: cddbd v1.5.2PL0 Copyright (c) Steve Scherf et al.
# Submitted via: EasyCDDAExtractor 16.0.6.1
#
DISCID=4612b116
DTITLE=Συλλογικός δίσκος - Το δημοτικό τραγούδι είναι εδώ 3.3
DYEAR=1900
DGENRE=Παραδοσιακή
TTITLE0=Κολλητήρη Σοφία - Όλες οι νιές παντρεύονται
TTITLE1=Κολλητήρη Σοφία - Νά 'χα νεράντζι νά 'ριχνα
TTITLE2=Καρναβάς Τάκης - Κάτω στο ρέμα το βαθύ
TTITLE3=Καρναβάς Τάκης - Πουλάκι ξένο
TTITLE4=Ζάχος Δημήτρης - Παναγιούλα-Μιά κοντή-Στα Ρίτσα βγαίνει ένα νερό
TTITLE5=Κυρίτσης Αντώνης - Μάννα στο περιβόλι μας
TTITLE6=Κυρίτσης Αντώνης - Σήκω Δημήτρω
TTITLE7=Κιτσάκης Αλέκος - Μαρία λέν την Παναγιά
TTITLE8=Κιτσάκης Αλέκος - Ο Μενούσης
TTITLE9=Σιάτρας Σάββας - Ο δερβέναγας
TTITLE10=Κοτρώτσου Γιούλα - Κότα μου, κοτούλα μου
TTITLE11=Κοτρώτσου Γιούλα - Γιούργια
TTITLE12=Μπέκιος Γιώργος - Έφταιξα συμπάθησέ με-Διαμάντω ποιος σε φίλησε
TTITLE13=Χρηστιά Βαγγελιώ - Απόψε που κοιμόμουνα
TTITLE14=Χρηστιά Βαγγελιώ - Παρήγγειλα στο γάμο σου
TTITLE15=Βώττας Θανάσης - Άσπρη βαμβακιά
TTITLE16=Τασία Βέρρα - Ο Ήλιος βασιλεύει
TTITLE17=Μπαλάσης Τάκης - Κουμπάρα τούτη τη βραδιά
TTITLE18=Φραγκούλη Αλέκα - Κωνσταντίνα-Στους κάμπους αναστέναξα-Η Στυλιανή
TTITLE19=Μπόνιας Σταύρος - Του πάνω κόσμου τα καλά
TTITLE20=Κατσιγιάννης Γιάννης - Νά 'μουνα νιός κι ανύπαντρος-Σαν δεν ήξερες να
TTITLE20=υφάνεις
TTITLE21=Λάλεζας Παναγιώτης - Γειτόνισσα
EXTD=
EXTT0=
EXTT1=
EXTT2=
EXTT3=
EXTT4=
EXTT5=
EXTT6=
EXTT7=
EXTT8=
EXTT9=
EXTT10=
EXTT11=
EXTT12=
EXTT13=
EXTT14=
EXTT15=
EXTT16=
EXTT17=
EXTT18=
EXTT19=
EXTT20=
EXTT21=
PLAYORDER=
